<svg width="15" height="30" viewBox="0 0 15 30" fill="none" xmlns="http://www.w3.org/2000/svg">
<path d="M0 15.4892V10.5664C0 10.2996 0.214982 10.0824 0.479013 10.0824H3.89368V6.43482C3.82532 6.03943 3.54146 3.75619 5.5864 1.84831C7.44506 0.128106 9.78377 0 10.4585 0C10.5498 0 10.6087 0 10.6348 0H14.5191C14.7831 0 14.9981 0.2172 14.9981 0.483956V5.06098C14.9981 5.32773 14.7831 5.54493 14.5191 5.54493C14.5191 5.54493 11.8381 5.54493 11.7014 5.54493C10.7131 5.54493 10.2043 6.0194 10.2043 6.95884V10.0824H14.5191C14.6558 10.0824 14.7831 10.1415 14.8713 10.2501C14.9689 10.3492 15.008 10.4873 14.9986 10.6259L14.421 15.6078C14.4017 15.8551 14.1961 16.0328 13.9514 16.0328H10.2043V29.5155C10.2043 29.7823 9.98936 30 9.7248 30H4.20676C3.94273 30 3.72775 29.7823 3.72775 29.5155V15.9737H0.479535C0.214982 15.9737 0 15.756 0 15.4892Z" fill="#F7F7F7"/>
</svg>
