<svg width="20" height="21" viewBox="0 0 20 21" fill="none" xmlns="http://www.w3.org/2000/svg">
<path d="M4.06966 9.16621C5.65696 12.2857 8.21428 14.832 11.3338 16.4303L13.7588 14.0053C14.0564 13.7077 14.4974 13.6084 14.8832 13.7407C16.1177 14.1486 17.4515 14.369 18.8183 14.369C19.4246 14.369 19.9206 14.8651 19.9206 15.4713V19.3183C19.9206 19.9246 19.4246 20.4206 18.8183 20.4206C8.46781 20.4206 0.079361 12.0322 0.079361 1.68164C0.079361 1.07538 0.575393 0.579346 1.18165 0.579346H5.03968C5.64594 0.579346 6.14197 1.07538 6.14197 1.68164C6.14197 3.0595 6.36243 4.38226 6.77028 5.61682C6.89153 6.00263 6.80335 6.43252 6.4947 6.74116L4.06966 9.16621Z" fill="#F7F7F7"/>
</svg>
