<svg width="27" height="30" viewBox="0 0 27 30" fill="none" xmlns="http://www.w3.org/2000/svg">
<path d="M26.98 7.51239H27V12.3852C25.2791 12.3852 23.6085 12.0594 22.0393 11.4167C21.0269 10.9918 20.0749 10.4578 19.2147 9.80565L19.245 20.7579C19.2347 23.2188 18.2325 25.5421 16.4204 27.2818C14.9522 28.7052 13.0893 29.6046 11.0645 29.9009C10.592 29.9668 10.1093 30 9.61681 30C7.46018 30 5.40506 29.3178 3.72414 28.0626C3.40718 27.8185 3.10318 27.5586 2.81321 27.2818C0.859068 25.3935 -0.153372 22.8334 0.0188778 20.1348C0.140371 18.0788 0.99082 16.1219 2.38772 14.5899C4.25061 12.5634 6.84245 11.4362 9.61681 11.4362C10.1093 11.4362 10.592 11.4694 11.0645 11.5353V16.5072C10.619 16.3691 10.133 16.29 9.63679 16.29C7.0957 16.29 5.0503 18.3065 5.08108 20.7874C5.11132 22.369 5.992 23.7629 7.30845 24.5236C7.91591 24.8795 8.62435 25.1072 9.38354 25.1467C9.97103 25.1763 10.538 25.0972 11.0645 24.929C12.8766 24.3459 14.1828 22.6753 14.1828 20.7184L14.193 13.3837V0H19.2147C19.2147 0.487646 19.2617 0.962113 19.3562 1.4234C19.7412 3.27171 20.8141 4.88279 22.3023 5.98988C23.6085 6.94883 25.2284 7.51239 26.98 7.51239Z" fill="#F7F7F7"/>
</svg>
